<svg xmlns="http://www.w3.org/2000/svg" xmlns:xlink="http://www.w3.org/1999/xlink" width="375" viewBox="0 0 375 375" height="375" version="1.0"><defs><clipPath id="a"><path d="M 26.203125 26.203125 L 348.703125 26.203125 L 348.703125 348.703125 L 26.203125 348.703125 Z M 26.203125 26.203125"/></clipPath><clipPath id="b"><path d="M 348.703125 187.453125 C 348.703125 190.09375 348.640625 192.730469 348.511719 195.367188 C 348.378906 198.003906 348.1875 200.632812 347.925781 203.257812 C 347.667969 205.886719 347.347656 208.503906 346.957031 211.113281 C 346.570312 213.726562 346.121094 216.324219 345.605469 218.914062 C 345.089844 221.5 344.511719 224.074219 343.871094 226.632812 C 343.230469 229.195312 342.527344 231.738281 341.761719 234.261719 C 340.996094 236.789062 340.167969 239.292969 339.277344 241.777344 C 338.390625 244.261719 337.441406 246.722656 336.429688 249.160156 C 335.417969 251.601562 334.351562 254.011719 333.222656 256.398438 C 332.09375 258.78125 330.90625 261.140625 329.664062 263.46875 C 328.417969 265.792969 327.121094 268.089844 325.761719 270.351562 C 324.40625 272.617188 322.996094 274.84375 321.527344 277.039062 C 320.0625 279.234375 318.542969 281.390625 316.972656 283.511719 C 315.398438 285.628906 313.777344 287.710938 312.101562 289.75 C 310.429688 291.789062 308.703125 293.789062 306.933594 295.742188 C 305.160156 297.699219 303.339844 299.609375 301.476562 301.476562 C 299.609375 303.339844 297.699219 305.160156 295.742188 306.933594 C 293.789062 308.703125 291.789062 310.429688 289.75 312.101562 C 287.710938 313.777344 285.628906 315.398438 283.511719 316.972656 C 281.390625 318.542969 279.234375 320.0625 277.039062 321.527344 C 274.84375 322.996094 272.617188 324.40625 270.351562 325.761719 C 268.089844 327.121094 265.792969 328.417969 263.46875 329.664062 C 261.140625 330.90625 258.78125 332.09375 256.398438 333.222656 C 254.011719 334.351562 251.601562 335.417969 249.160156 336.429688 C 246.722656 337.441406 244.261719 338.390625 241.777344 339.277344 C 239.292969 340.167969 236.789062 340.996094 234.261719 341.761719 C 231.738281 342.527344 229.195312 343.230469 226.632812 343.871094 C 224.074219 344.511719 221.5 345.089844 218.914062 345.605469 C 216.324219 346.121094 213.726562 346.570312 211.113281 346.957031 C 208.503906 347.347656 205.886719 347.667969 203.257812 347.925781 C 200.632812 348.1875 198.003906 348.378906 195.367188 348.511719 C 192.730469 348.640625 190.09375 348.703125 187.453125 348.703125 C 184.816406 348.703125 182.179688 348.640625 179.542969 348.511719 C 176.90625 348.378906 174.273438 348.1875 171.648438 347.925781 C 169.023438 347.667969 166.402344 347.347656 163.792969 346.957031 C 161.183594 346.570312 158.585938 346.121094 155.996094 345.605469 C 153.40625 345.089844 150.832031 344.511719 148.273438 343.871094 C 145.714844 343.230469 143.171875 342.527344 140.644531 341.761719 C 138.121094 340.996094 135.617188 340.167969 133.128906 339.277344 C 130.644531 338.390625 128.183594 337.441406 125.746094 336.429688 C 123.308594 335.417969 120.894531 334.351562 118.511719 333.222656 C 116.125 332.09375 113.769531 330.90625 111.441406 329.664062 C 109.113281 328.417969 106.820312 327.121094 104.554688 325.761719 C 102.292969 324.40625 100.0625 322.996094 97.867188 321.527344 C 95.675781 320.0625 93.515625 318.542969 91.398438 316.972656 C 89.277344 315.398438 87.199219 313.777344 85.160156 312.101562 C 83.117188 310.429688 81.121094 308.703125 79.164062 306.933594 C 77.210938 305.160156 75.300781 303.339844 73.433594 301.476562 C 71.566406 299.609375 69.746094 297.699219 67.976562 295.742188 C 66.203125 293.789062 64.480469 291.789062 62.804688 289.75 C 61.132812 287.710938 59.507812 285.628906 57.9375 283.511719 C 56.363281 281.390625 54.847656 279.234375 53.378906 277.039062 C 51.914062 274.84375 50.503906 272.617188 49.144531 270.351562 C 47.789062 268.089844 46.488281 265.792969 45.246094 263.46875 C 44 261.140625 42.8125 258.78125 41.6875 256.398438 C 40.558594 254.011719 39.488281 251.601562 38.480469 249.160156 C 37.46875 246.722656 36.519531 244.261719 35.628906 241.777344 C 34.742188 239.292969 33.914062 236.789062 33.148438 234.261719 C 32.382812 231.738281 31.679688 229.195312 31.035156 226.632812 C 30.394531 224.074219 29.816406 221.5 29.300781 218.914062 C 28.789062 216.324219 28.335938 213.726562 27.949219 211.113281 C 27.5625 208.503906 27.238281 205.886719 26.980469 203.257812 C 26.722656 200.632812 26.527344 198.003906 26.398438 195.367188 C 26.269531 192.730469 26.203125 190.09375 26.203125 187.453125 C 26.203125 184.816406 26.269531 182.179688 26.398438 179.542969 C 26.527344 176.90625 26.722656 174.273438 26.980469 171.648438 C 27.238281 169.023438 27.5625 166.402344 27.949219 163.792969 C 28.335938 161.183594 28.789062 158.585938 29.300781 155.996094 C 29.816406 153.40625 30.394531 150.832031 31.035156 148.273438 C 31.679688 145.714844 32.382812 143.171875 33.148438 140.644531 C 33.914062 138.121094 34.742188 135.617188 35.628906 133.128906 C 36.519531 130.644531 37.46875 128.183594 38.480469 125.746094 C 39.488281 123.308594 40.558594 120.894531 41.6875 118.511719 C 42.8125 116.125 44 113.769531 45.246094 111.441406 C 46.488281 109.113281 47.789062 106.820312 49.144531 104.554688 C 50.503906 102.292969 51.914062 100.0625 53.378906 97.867188 C 54.847656 95.675781 56.363281 93.515625 57.9375 91.398438 C 59.507812 89.277344 61.132812 87.199219 62.804688 85.160156 C 64.480469 83.117188 66.203125 81.121094 67.976562 79.164062 C 69.746094 77.210938 71.566406 75.300781 73.433594 73.433594 C 75.300781 71.566406 77.210938 69.746094 79.164062 67.976562 C 81.121094 66.203125 83.117188 64.480469 85.160156 62.804688 C 87.199219 61.132812 89.277344 59.507812 91.398438 57.9375 C 93.515625 56.363281 95.675781 54.847656 97.867188 53.378906 C 100.0625 51.914062 102.292969 50.503906 104.554688 49.144531 C 106.820312 47.789062 109.113281 46.488281 111.441406 45.246094 C 113.769531 44 116.125 42.8125 118.511719 41.6875 C 120.894531 40.558594 123.308594 39.488281 125.746094 38.480469 C 128.183594 37.46875 130.644531 36.519531 133.128906 35.628906 C 135.617188 34.742188 138.121094 33.914062 140.644531 33.148438 C 143.171875 32.382812 145.714844 31.679688 148.273438 31.035156 C 150.832031 30.394531 153.40625 29.816406 155.996094 29.300781 C 158.585938 28.789062 161.183594 28.335938 163.792969 27.949219 C 166.402344 27.5625 169.023438 27.238281 171.648438 26.980469 C 174.273438 26.722656 176.90625 26.527344 179.542969 26.398438 C 182.179688 26.269531 184.816406 26.203125 187.453125 26.203125 C 190.09375 26.203125 192.730469 26.269531 195.367188 26.398438 C 198.003906 26.527344 200.632812 26.722656 203.257812 26.980469 C 205.886719 27.238281 208.503906 27.5625 211.113281 27.949219 C 213.726562 28.335938 216.324219 28.789062 218.914062 29.300781 C 221.5 29.816406 224.074219 30.394531 226.632812 31.035156 C 229.195312 31.679688 231.738281 32.382812 234.261719 33.148438 C 236.789062 33.914062 239.292969 34.742188 241.777344 35.628906 C 244.261719 36.519531 246.722656 37.46875 249.160156 38.480469 C 251.601562 39.488281 254.011719 40.558594 256.398438 41.6875 C 258.78125 42.8125 261.140625 44 263.46875 45.246094 C 265.792969 46.488281 268.089844 47.789062 270.351562 49.144531 C 272.617188 50.503906 274.84375 51.914062 277.039062 53.378906 C 279.234375 54.847656 281.390625 56.363281 283.511719 57.9375 C 285.628906 59.507812 287.710938 61.132812 289.75 62.804688 C 291.789062 64.480469 293.789062 66.203125 295.742188 67.976562 C 297.699219 69.746094 299.609375 71.566406 301.476562 73.433594 C 303.339844 75.300781 305.160156 77.210938 306.933594 79.164062 C 308.703125 81.121094 310.429688 83.117188 312.101562 85.160156 C 313.777344 87.199219 315.398438 89.277344 316.972656 91.398438 C 318.542969 93.515625 320.0625 95.675781 321.527344 97.867188 C 322.996094 100.0625 324.40625 102.292969 325.761719 104.554688 C 327.121094 106.820312 328.417969 109.113281 329.664062 111.441406 C 330.90625 113.769531 332.09375 116.125 333.222656 118.511719 C 334.351562 120.894531 335.417969 123.308594 336.429688 125.746094 C 337.441406 128.183594 338.390625 130.644531 339.277344 133.128906 C 340.167969 135.617188 340.996094 138.121094 341.761719 140.644531 C 342.527344 143.171875 343.230469 145.714844 343.871094 148.273438 C 344.511719 150.832031 345.089844 153.40625 345.605469 155.996094 C 346.121094 158.585938 346.570312 161.183594 346.957031 163.792969 C 347.347656 166.402344 347.667969 169.023438 347.925781 171.648438 C 348.1875 174.273438 348.378906 176.90625 348.511719 179.542969 C 348.640625 182.179688 348.703125 184.816406 348.703125 187.453125 Z M 348.703125 187.453125"/></clipPath><clipPath id="d"><path d="M 82.109375 83 L 292.859375 83 L 292.859375 292 L 82.109375 292 Z M 82.109375 83"/></clipPath><linearGradient x1="1770.926" gradientTransform="rotate(90 2614.072 -1811.194) scale(2.51364)" y1="244.834" x2="1899.226" gradientUnits="userSpaceOnUse" y2="244.834" xlink:type="simple" xlink:actuate="onLoad" id="c" xlink:show="other"><stop stop-color="#4DA6E7" offset="0"/><stop stop-color="#4DA6E7" offset=".5"/><stop stop-color="#4DA6E7" offset=".625"/><stop stop-color="#4DA6E7" offset=".633"/><stop stop-color="#4EA7E7" offset=".637"/><stop stop-color="#50A7E7" offset=".641"/><stop stop-color="#52A8E8" offset=".645"/><stop stop-color="#54A9E8" offset=".648"/><stop stop-color="#56AAE8" offset=".652"/><stop stop-color="#58ABE8" offset=".656"/><stop stop-color="#5AACE9" offset=".66"/><stop stop-color="#5BADE9" offset=".664"/><stop stop-color="#5DAEE9" offset=".668"/><stop stop-color="#5FAFEA" offset=".672"/><stop stop-color="#61B0EA" offset=".676"/><stop stop-color="#63B1EA" offset=".68"/><stop stop-color="#65B2EA" offset=".684"/><stop stop-color="#67B3EB" offset=".688"/><stop stop-color="#69B4EB" offset=".691"/><stop stop-color="#6BB5EB" offset=".695"/><stop stop-color="#6DB6EB" offset=".699"/><stop stop-color="#6FB7EC" offset=".703"/><stop stop-color="#71B8EC" offset=".707"/><stop stop-color="#73B9EC" offset=".711"/><stop stop-color="#75BAEC" offset=".715"/><stop stop-color="#77BBED" offset=".719"/><stop stop-color="#79BCED" offset=".723"/><stop stop-color="#7BBDED" offset=".727"/><stop stop-color="#7DBEED" offset=".73"/><stop stop-color="#7FBFEE" offset=".734"/><stop stop-color="#80C0EE" offset=".738"/><stop stop-color="#82C1EE" offset=".742"/><stop stop-color="#84C2EE" offset=".746"/><stop stop-color="#86C3EF" offset=".75"/><stop stop-color="#88C4EF" offset=".754"/><stop stop-color="#8AC5EF" offset=".758"/><stop stop-color="#8CC6F0" offset=".762"/><stop stop-color="#8EC7F0" offset=".766"/><stop stop-color="#90C8F0" offset=".77"/><stop stop-color="#92C9F0" offset=".773"/><stop stop-color="#94C9F1" offset=".777"/><stop stop-color="#96CAF1" offset=".781"/><stop stop-color="#98CBF1" offset=".785"/><stop stop-color="#9ACCF1" offset=".789"/><stop stop-color="#9CCDF2" offset=".793"/><stop stop-color="#9ECEF2" offset=".797"/><stop stop-color="#A0CFF2" offset=".801"/><stop stop-color="#A2D0F2" offset=".805"/><stop stop-color="#A4D1F3" offset=".809"/><stop stop-color="#A6D2F3" offset=".813"/><stop stop-color="#A7D3F3" offset=".816"/><stop stop-color="#A9D4F3" offset=".82"/><stop stop-color="#ABD5F4" offset=".824"/><stop stop-color="#ADD6F4" offset=".828"/><stop stop-color="#AFD7F4" offset=".832"/><stop stop-color="#B1D8F5" offset=".836"/><stop stop-color="#B3D9F5" offset=".84"/><stop stop-color="#B5DAF5" offset=".844"/><stop stop-color="#B7DBF5" offset=".848"/><stop stop-color="#B9DCF6" offset=".852"/><stop stop-color="#BBDDF6" offset=".855"/><stop stop-color="#BDDEF6" offset=".859"/><stop stop-color="#BFDFF6" offset=".863"/><stop stop-color="#C1E0F7" offset=".867"/><stop stop-color="#C3E1F7" offset=".871"/><stop stop-color="#C5E2F7" offset=".875"/><stop stop-color="#C7E3F7" offset=".879"/><stop stop-color="#C9E4F8" offset=".883"/><stop stop-color="#CBE5F8" offset=".887"/><stop stop-color="#CCE6F8" offset=".891"/><stop stop-color="#CEE7F8" offset=".895"/><stop stop-color="#D0E8F9" offset=".898"/><stop stop-color="#D2E9F9" offset=".902"/><stop stop-color="#D4EAF9" offset=".906"/><stop stop-color="#D6EBFA" offset=".91"/><stop stop-color="#D8ECFA" offset=".914"/><stop stop-color="#DAEDFA" offset=".918"/><stop stop-color="#DCEEFA" offset=".922"/><stop stop-color="#DEEEFB" offset=".926"/><stop stop-color="#E0EFFB" offset=".93"/><stop stop-color="#E2F0FB" offset=".934"/><stop stop-color="#E4F1FB" offset=".938"/><stop stop-color="#E6F2FC" offset=".941"/><stop stop-color="#E8F3FC" offset=".945"/><stop stop-color="#EAF4FC" offset=".949"/><stop stop-color="#ECF5FC" offset=".953"/><stop stop-color="#EEF6FD" offset=".957"/><stop stop-color="#F0F7FD" offset=".961"/><stop stop-color="#F1F8FD" offset=".965"/><stop stop-color="#F3F9FD" offset=".969"/><stop stop-color="#F5FAFE" offset=".973"/><stop stop-color="#F7FBFE" offset=".977"/><stop stop-color="#F9FCFE" offset=".98"/><stop stop-color="#FBFDFE" offset=".984"/><stop stop-color="#FDFEFF" offset=".988"/><stop stop-color="#FFF" offset=".992"/><stop stop-color="#FFF" offset="1"/></linearGradient></defs><path fill="#FFF" d="M-37.5 -37.5H412.5V412.5H-37.5z"/><path fill="#FFF" d="M-37.5 -37.5H412.5V412.5H-37.5z"/><path fill="#FFF" d="M-37.5 -37.5H412.5V412.5H-37.5z"/><g clip-path="url(#a)"><g clip-path="url(#b)"><path fill="url(#c)" d="M 348.703125 26.203125 L 26.203125 26.203125 L 26.203125 348.703125 L 348.703125 348.703125 Z M 348.703125 26.203125"/></g></g><g clip-path="url(#d)"><path fill="#FFF" d="M 187.484375 83.867188 C 129.292969 83.867188 82.109375 131.046875 82.109375 189.242188 C 82.109375 238.617188 116.109375 279.933594 161.949219 291.367188 C 161.457031 289.945312 161.140625 288.292969 161.140625 286.246094 L 161.140625 268.238281 C 156.863281 268.238281 149.699219 268.238281 147.898438 268.238281 C 140.691406 268.238281 134.28125 265.136719 131.171875 259.378906 C 127.71875 252.976562 127.121094 243.183594 118.570312 237.195312 C 116.03125 235.203125 117.964844 232.929688 120.886719 233.234375 C 126.289062 234.761719 130.765625 238.46875 134.980469 243.964844 C 139.179688 249.472656 141.15625 250.71875 148.996094 250.71875 C 152.800781 250.71875 158.488281 250.5 163.847656 249.65625 C 166.726562 242.339844 171.707031 235.605469 177.789062 232.425781 C 142.699219 228.820312 125.953125 211.359375 125.953125 187.660156 C 125.953125 177.457031 130.300781 167.585938 137.6875 159.269531 C 135.261719 151.015625 132.214844 134.183594 138.617188 127.773438 C 154.40625 127.773438 163.953125 138.011719 166.242188 140.777344 C 174.109375 138.082031 182.753906 136.554688 191.832031 136.554688 C 200.929688 136.554688 209.605469 138.082031 217.492188 140.796875 C 219.757812 138.046875 229.308594 127.773438 245.132812 127.773438 C 251.5625 134.191406 248.480469 151.09375 246.03125 159.332031 C 253.371094 167.628906 257.691406 177.472656 257.691406 187.660156 C 257.691406 211.34375 240.972656 228.792969 205.933594 232.417969 C 215.578125 237.449219 222.609375 251.589844 222.609375 262.238281 L 222.609375 286.246094 C 222.609375 287.160156 222.40625 287.820312 222.300781 288.601562 C 263.363281 274.207031 292.859375 235.21875 292.859375 189.242188 C 292.859375 131.046875 245.679688 83.867188 187.484375 83.867188 Z M 187.484375 83.867188"/></g></svg>