<?xml version="1.0" encoding="utf-8"?>
<!-- Generator: Adobe Illustrator 26.0.3, SVG Export Plug-In . SVG Version: 6.00 Build 0)  -->
<svg version="1.1" id="Layer_1" xmlns="http://www.w3.org/2000/svg" xmlns:xlink="http://www.w3.org/1999/xlink" x="0px" y="0px"
	 viewBox="0 0 250 250" style="enable-background:new 0 0 250 250;" xml:space="preserve">
<style type="text/css">
	.st0{fill:none;}
	.st1{fill:#FFFFFF;}
	.st2{fill:none;stroke:url(#SVGID_1_);stroke-width:2.0348;stroke-linecap:round;stroke-linejoin:round;stroke-miterlimit:10;}
	
		.st3{fill:none;stroke:url(#SVGID_00000104707302649698818790000011570728980836675974_);stroke-width:2.0771;stroke-linecap:round;stroke-linejoin:round;stroke-miterlimit:10;}
	
		.st4{fill:none;stroke:url(#SVGID_00000093895270846327031560000017686323538005668538_);stroke-width:2.0386;stroke-linecap:round;stroke-linejoin:round;stroke-miterlimit:10;}
	
		.st5{fill:none;stroke:url(#SVGID_00000151516675030523324620000014426368920362456968_);stroke-width:2.5293;stroke-linecap:round;stroke-linejoin:round;stroke-miterlimit:10;}
	
		.st6{fill:none;stroke:url(#SVGID_00000051342134035990539090000012328722851277776808_);stroke-width:2.5293;stroke-linecap:round;stroke-linejoin:round;stroke-miterlimit:10;}
	.st7{fill:#712D91;}
	.st8{fill:#A6A6A6;}
</style>
<rect x="86.5" y="87" class="st0" width="75" height="75"/>
<g>
	<ellipse class="st1" cx="124.2" cy="112.5" rx="16.5" ry="16.9"/>
	<g>
		
			<linearGradient id="SVGID_1_" gradientUnits="userSpaceOnUse" x1="-66.4526" y1="166.7038" x2="-57.7551" y2="166.7038" gradientTransform="matrix(-1 0 0 1 62.0446 -48)">
			<stop  offset="0" style="stop-color:#662D91"/>
			<stop  offset="0.1352" style="stop-color:#682C91"/>
			<stop  offset="0.2384" style="stop-color:#6F2C91"/>
			<stop  offset="0.331" style="stop-color:#7B2A90"/>
			<stop  offset="0.4169" style="stop-color:#8A2890"/>
			<stop  offset="0.4524" style="stop-color:#92278F"/>
			<stop  offset="0.5706" style="stop-color:#94278E"/>
			<stop  offset="0.6658" style="stop-color:#9B268C"/>
			<stop  offset="0.7531" style="stop-color:#A72689"/>
			<stop  offset="0.8355" style="stop-color:#B82686"/>
			<stop  offset="0.9146" style="stop-color:#CD2781"/>
			<stop  offset="0.9902" style="stop-color:#E82A7C"/>
			<stop  offset="1" style="stop-color:#EE2A7B"/>
		</linearGradient>
		<line class="st2" x1="127.5" y1="118.7" x2="120.8" y2="118.7"/>
		
			<linearGradient id="SVGID_00000116935793941991484470000011459222796830024639_" gradientUnits="userSpaceOnUse" x1="-62.8752" y1="160.6707" x2="-53.8385" y2="160.6707" gradientTransform="matrix(-1 0 0 1 66.1049 -48)">
			<stop  offset="0" style="stop-color:#662D91"/>
			<stop  offset="0.1352" style="stop-color:#682C91"/>
			<stop  offset="0.2384" style="stop-color:#6F2C91"/>
			<stop  offset="0.331" style="stop-color:#7B2A90"/>
			<stop  offset="0.4169" style="stop-color:#8A2890"/>
			<stop  offset="0.4524" style="stop-color:#92278F"/>
			<stop  offset="0.5706" style="stop-color:#94278E"/>
			<stop  offset="0.6658" style="stop-color:#9B268C"/>
			<stop  offset="0.7531" style="stop-color:#A72689"/>
			<stop  offset="0.8355" style="stop-color:#B82686"/>
			<stop  offset="0.9146" style="stop-color:#CD2781"/>
			<stop  offset="0.9902" style="stop-color:#E82A7C"/>
			<stop  offset="1" style="stop-color:#EE2A7B"/>
		</linearGradient>
		
			<line style="fill:none;stroke:url(#SVGID_00000116935793941991484470000011459222796830024639_);stroke-width:2.0771;stroke-linecap:round;stroke-linejoin:round;stroke-miterlimit:10;" x1="127.9" y1="112.7" x2="121" y2="112.7"/>
		
			<linearGradient id="SVGID_00000182529762085057499900000008264250179018362519_" gradientUnits="userSpaceOnUse" x1="-62.7075" y1="154.4855" x2="-54.0062" y2="154.4855" gradientTransform="matrix(-1 0 0 1 66.1049 -48)">
			<stop  offset="0" style="stop-color:#662D91"/>
			<stop  offset="0.1352" style="stop-color:#682C91"/>
			<stop  offset="0.2384" style="stop-color:#6F2C91"/>
			<stop  offset="0.331" style="stop-color:#7B2A90"/>
			<stop  offset="0.4169" style="stop-color:#8A2890"/>
			<stop  offset="0.4524" style="stop-color:#92278F"/>
			<stop  offset="0.5706" style="stop-color:#94278E"/>
			<stop  offset="0.6658" style="stop-color:#9B268C"/>
			<stop  offset="0.7531" style="stop-color:#A72689"/>
			<stop  offset="0.8355" style="stop-color:#B82686"/>
			<stop  offset="0.9146" style="stop-color:#CD2781"/>
			<stop  offset="0.9902" style="stop-color:#E82A7C"/>
			<stop  offset="1" style="stop-color:#EE2A7B"/>
		</linearGradient>
		
			<line style="fill:none;stroke:url(#SVGID_00000182529762085057499900000008264250179018362519_);stroke-width:2.0386;stroke-linecap:round;stroke-linejoin:round;stroke-miterlimit:10;" x1="127.8" y1="106.5" x2="121.1" y2="106.5"/>
		
			<linearGradient id="SVGID_00000089570521393054372210000003419613054734589617_" gradientUnits="userSpaceOnUse" x1="118.553" y1="160.5947" x2="121.0823" y2="160.5947" gradientTransform="matrix(1 0 0 1 0 -48)">
			<stop  offset="0" style="stop-color:#662D91"/>
			<stop  offset="0.1352" style="stop-color:#682C91"/>
			<stop  offset="0.2384" style="stop-color:#6F2C91"/>
			<stop  offset="0.331" style="stop-color:#7B2A90"/>
			<stop  offset="0.4169" style="stop-color:#8A2890"/>
			<stop  offset="0.4524" style="stop-color:#92278F"/>
			<stop  offset="0.5706" style="stop-color:#94278E"/>
			<stop  offset="0.6658" style="stop-color:#9B268C"/>
			<stop  offset="0.7531" style="stop-color:#A72689"/>
			<stop  offset="0.8355" style="stop-color:#B82686"/>
			<stop  offset="0.9146" style="stop-color:#CD2781"/>
			<stop  offset="0.9902" style="stop-color:#E82A7C"/>
			<stop  offset="1" style="stop-color:#EE2A7B"/>
		</linearGradient>
		
			<line style="fill:none;stroke:url(#SVGID_00000089570521393054372210000003419613054734589617_);stroke-width:2.5293;stroke-linecap:round;stroke-linejoin:round;stroke-miterlimit:10;" x1="119.8" y1="101" x2="119.8" y2="124.2"/>
		
			<linearGradient id="SVGID_00000026846973057040643270000016189658661037851064_" gradientUnits="userSpaceOnUse" x1="127.2248" y1="160.5947" x2="129.7645" y2="160.5947" gradientTransform="matrix(1 0 0 1 0 -48)">
			<stop  offset="0" style="stop-color:#662D91"/>
			<stop  offset="0.1352" style="stop-color:#682C91"/>
			<stop  offset="0.2384" style="stop-color:#6F2C91"/>
			<stop  offset="0.331" style="stop-color:#7B2A90"/>
			<stop  offset="0.4169" style="stop-color:#8A2890"/>
			<stop  offset="0.4524" style="stop-color:#92278F"/>
			<stop  offset="0.5706" style="stop-color:#94278E"/>
			<stop  offset="0.6658" style="stop-color:#9B268C"/>
			<stop  offset="0.7531" style="stop-color:#A72689"/>
			<stop  offset="0.8355" style="stop-color:#B82686"/>
			<stop  offset="0.9146" style="stop-color:#CD2781"/>
			<stop  offset="0.9902" style="stop-color:#E82A7C"/>
			<stop  offset="1" style="stop-color:#EE2A7B"/>
		</linearGradient>
		
			<line style="fill:none;stroke:url(#SVGID_00000026846973057040643270000016189658661037851064_);stroke-width:2.5293;stroke-linecap:round;stroke-linejoin:round;stroke-miterlimit:10;" x1="128.5" y1="101" x2="128.5" y2="124.2"/>
	</g>
</g>
<g>
	<g>
		<path class="st7" d="M105.2,130.9v1.7h-1.1V128h1.8c0.4,0,0.7,0,0.9,0.1s0.4,0.2,0.6,0.5c0.2,0.2,0.2,0.5,0.2,0.8
			c0,0.2,0,0.4-0.1,0.6s-0.2,0.4-0.4,0.5c-0.2,0.1-0.3,0.2-0.5,0.2c-0.2,0-0.4,0.1-0.7,0.1H105.2z M105.2,130.1h0.7
			c0.3,0,0.4-0.1,0.6-0.2c0.1-0.1,0.2-0.3,0.2-0.4c0-0.2-0.1-0.3-0.2-0.4c-0.1-0.1-0.3-0.2-0.5-0.2h-0.7V130.1z"/>
		<path class="st7" d="M111,129.2v3.3h-0.9V132c-0.2,0.4-0.5,0.6-1,0.6c-0.3,0-0.4,0-0.6-0.1c-0.1-0.1-0.2-0.2-0.3-0.4
			s-0.1-0.4-0.1-0.7v-2.2h1v2.2c0,0.3,0.1,0.4,0.4,0.4c0.1,0,0.2,0,0.3-0.1s0.2-0.1,0.2-0.2c0-0.1,0-0.2,0-0.4v-1.9H111z"/>
		<path class="st7" d="M112.8,132.5h-1v-3.3h0.9v0.6c0.1-0.5,0.4-0.7,0.7-0.7c0,0,0.1,0,0.2,0v1c-0.2,0-0.4,0-0.5,0.1
			s-0.2,0.2-0.3,0.3s-0.1,0.4-0.1,0.6V132.5z"/>
		<path class="st7" d="M114.2,133.7v-4.5h0.9v0.5c0.2-0.4,0.5-0.6,0.9-0.6c0.4,0,0.7,0.1,0.9,0.4c0.2,0.3,0.3,0.7,0.3,1.3
			c0,0.6-0.1,1-0.3,1.3c-0.2,0.3-0.5,0.4-0.9,0.4c-0.4,0-0.6-0.1-0.8-0.4v1.5H114.2z M115.1,131.1c0,0.2,0,0.4,0,0.5
			c0,0.1,0.1,0.2,0.2,0.2s0.2,0.1,0.3,0.1c0.1,0,0.3-0.1,0.4-0.2c0.1-0.1,0.2-0.4,0.2-0.9c0-0.7-0.2-1-0.5-1c-0.1,0-0.3,0.1-0.4,0.2
			c-0.1,0.1-0.2,0.3-0.2,0.6V131.1z"/>
		<path class="st7" d="M117.8,132.5V128h1v4.5H117.8z"/>
		<path class="st7" d="M122.6,131h-2.1c0,0.1,0,0.1,0,0.2c0,0.2,0.1,0.4,0.2,0.5c0.1,0.1,0.3,0.2,0.5,0.2c0.3,0,0.5-0.2,0.6-0.5
			l0.9,0.1c-0.2,0.8-0.8,1.2-1.5,1.2c-0.3,0-0.6-0.1-0.8-0.2c-0.2-0.1-0.4-0.3-0.6-0.6s-0.2-0.6-0.2-0.9c0-0.5,0.2-1,0.5-1.3
			s0.7-0.5,1.2-0.5c0.4,0,0.8,0.2,1.1,0.5C122.4,129.9,122.6,130.4,122.6,131z M120.4,130.5h1.2c0-0.5-0.2-0.7-0.6-0.7
			C120.7,129.8,120.5,130,120.4,130.5z"/>
		<path class="st7" d="M126,131.6h1.8v0.9h-2.9V128h1.1V131.6z"/>
		<path class="st7" d="M131.2,132.5h-1c0-0.1,0-0.3,0-0.5c-0.2,0.2-0.3,0.4-0.5,0.5c-0.2,0.1-0.4,0.1-0.6,0.1
			c-0.3,0-0.6-0.1-0.8-0.3s-0.3-0.4-0.3-0.7c0-0.2,0.1-0.4,0.2-0.6c0.1-0.2,0.3-0.3,0.5-0.4c0.2-0.1,0.7-0.2,1.4-0.2v-0.2
			c0-0.3-0.2-0.5-0.5-0.5c-0.3,0-0.5,0.2-0.6,0.5l-0.9-0.1c0.1-0.4,0.2-0.6,0.5-0.8s0.6-0.2,1-0.2c0.2,0,0.4,0,0.6,0.1
			s0.4,0.1,0.5,0.2s0.2,0.2,0.2,0.3c0,0.1,0.1,0.3,0.1,0.6v1.5C131.1,132.2,131.2,132.4,131.2,132.5z M130.2,130.9
			c-0.7,0.1-1,0.3-1,0.6c0,0.1,0,0.2,0.1,0.3c0.1,0.1,0.2,0.1,0.3,0.1c0.2,0,0.3-0.1,0.4-0.2s0.2-0.3,0.2-0.5V130.9z"/>
		<path class="st7" d="M134.8,128v4.5h-0.9V132c-0.2,0.4-0.5,0.6-0.9,0.6c-0.4,0-0.7-0.2-0.9-0.5c-0.2-0.3-0.3-0.7-0.3-1.2
			c0-0.6,0.1-1,0.3-1.3c0.2-0.3,0.5-0.5,0.9-0.5c0.4,0,0.6,0.1,0.8,0.4V128H134.8z M133.8,130.6c0-0.5-0.2-0.8-0.5-0.8
			c-0.4,0-0.6,0.4-0.6,1.1c0,0.7,0.2,1,0.5,1c0.1,0,0.3-0.1,0.4-0.2c0.1-0.1,0.2-0.3,0.2-0.5V130.6z"/>
		<path class="st7" d="M138.4,128v4.5h-0.9V132c-0.2,0.4-0.5,0.6-0.9,0.6c-0.4,0-0.7-0.2-0.9-0.5c-0.2-0.3-0.3-0.7-0.3-1.2
			c0-0.6,0.1-1,0.3-1.3c0.2-0.3,0.5-0.5,0.9-0.5c0.4,0,0.6,0.1,0.8,0.4V128H138.4z M137.5,130.6c0-0.5-0.2-0.8-0.5-0.8
			c-0.4,0-0.6,0.4-0.6,1.1c0,0.7,0.2,1,0.5,1c0.1,0,0.3-0.1,0.4-0.2c0.1-0.1,0.2-0.3,0.2-0.5V130.6z"/>
		<path class="st7" d="M142.2,131h-2.1c0,0.1,0,0.1,0,0.2c0,0.2,0.1,0.4,0.2,0.5c0.1,0.1,0.3,0.2,0.5,0.2c0.3,0,0.5-0.2,0.6-0.5
			l0.9,0.1c-0.2,0.8-0.8,1.2-1.5,1.2c-0.3,0-0.6-0.1-0.8-0.2c-0.2-0.1-0.4-0.3-0.6-0.6c-0.2-0.3-0.2-0.6-0.2-0.9
			c0-0.5,0.2-1,0.5-1.3c0.3-0.3,0.7-0.5,1.2-0.5c0.4,0,0.8,0.2,1.1,0.5C142.1,129.9,142.2,130.4,142.2,131z M140.1,130.5h1.2
			c0-0.5-0.2-0.7-0.6-0.7C140.3,129.8,140.1,130,140.1,130.5z"/>
		<path class="st7" d="M143.8,132.5h-1v-3.3h0.9v0.6c0.1-0.5,0.4-0.7,0.7-0.7c0,0,0.1,0,0.2,0v1c-0.2,0-0.4,0-0.5,0.1
			s-0.2,0.2-0.3,0.3s-0.1,0.4-0.1,0.6V132.5z"/>
		<path class="st8" d="M92.5,135.8h1c1.2,0,1.9,0.7,1.9,2c0,1.3-0.6,2-1.8,2h-1V135.8z M93.5,139.3c0.9,0,1.4-0.6,1.4-1.6
			c0-1-0.5-1.5-1.4-1.5H93v3.1H93.5z"/>
		<path class="st8" d="M96.1,135.9c0-0.2,0.1-0.3,0.3-0.3s0.3,0.1,0.3,0.3c0,0.2-0.1,0.3-0.3,0.3S96.1,136.1,96.1,135.9z
			 M96.2,136.8h0.5v2.9h-0.5V136.8z"/>
		<path class="st8" d="M97.4,140.3c0-0.2,0.2-0.5,0.4-0.7v0c-0.1-0.1-0.3-0.2-0.3-0.5c0-0.2,0.2-0.4,0.3-0.5v0
			c-0.2-0.2-0.4-0.4-0.4-0.8c0-0.6,0.5-1,1.1-1c0.2,0,0.3,0,0.4,0.1h1v0.4h-0.6c0.1,0.1,0.2,0.4,0.2,0.6c0,0.6-0.5,1-1.1,1
			c-0.1,0-0.3,0-0.4-0.1c-0.1,0.1-0.2,0.2-0.2,0.3c0,0.2,0.1,0.3,0.5,0.3h0.6c0.7,0,1,0.2,1,0.7c0,0.5-0.6,1-1.5,1
			C97.9,141.1,97.4,140.8,97.4,140.3z M99.6,140.1c0-0.3-0.2-0.4-0.6-0.4h-0.5c-0.1,0-0.2,0-0.4,0c-0.2,0.1-0.3,0.3-0.3,0.5
			c0,0.3,0.3,0.5,0.8,0.5C99.2,140.7,99.6,140.5,99.6,140.1z M99.2,137.8c0-0.4-0.3-0.7-0.6-0.7c-0.3,0-0.6,0.3-0.6,0.7
			c0,0.4,0.3,0.7,0.6,0.7S99.2,138.2,99.2,137.8z"/>
		<path class="st8" d="M100.6,135.9c0-0.2,0.1-0.3,0.3-0.3s0.3,0.1,0.3,0.3c0,0.2-0.1,0.3-0.3,0.3S100.6,136.1,100.6,135.9z
			 M100.7,136.8h0.5v2.9h-0.5V136.8z"/>
		<path class="st8" d="M102.2,138.8v-1.6h-0.4v-0.4l0.5,0l0.1-0.8h0.4v0.8h0.8v0.4h-0.8v1.6c0,0.4,0.1,0.6,0.5,0.6
			c0.1,0,0.2,0,0.3-0.1l0.1,0.4c-0.2,0.1-0.4,0.1-0.5,0.1C102.4,139.8,102.2,139.4,102.2,138.8z"/>
		<path class="st8" d="M104,139c0-0.6,0.5-1,1.8-1.1c0-0.4-0.1-0.7-0.6-0.7c-0.3,0-0.6,0.2-0.9,0.3l-0.2-0.3
			c0.3-0.2,0.7-0.4,1.1-0.4c0.7,0,1,0.5,1,1.2v1.8h-0.4l0-0.3h0c-0.3,0.2-0.6,0.4-1,0.4C104.3,139.8,104,139.5,104,139z M105.8,139
			v-0.8c-1,0.1-1.3,0.4-1.3,0.7c0,0.3,0.2,0.5,0.5,0.5C105.3,139.4,105.5,139.3,105.8,139z"/>
		<path class="st8" d="M107.2,139.2v-3.7h0.5v3.7c0,0.2,0.1,0.2,0.1,0.2c0,0,0.1,0,0.1,0l0.1,0.4c-0.1,0-0.2,0-0.3,0
			C107.3,139.8,107.2,139.6,107.2,139.2z"/>
		<path class="st8" d="M110,135.8h1.2c0.8,0,1.4,0.3,1.4,1c0,0.4-0.2,0.7-0.6,0.9v0c0.5,0.1,0.8,0.4,0.8,0.9c0,0.8-0.6,1.2-1.5,1.2
			H110V135.8z M111,137.5c0.7,0,0.9-0.2,0.9-0.6c0-0.5-0.3-0.6-0.9-0.6h-0.6v1.3H111z M111.1,139.3c0.7,0,1.1-0.2,1.1-0.8
			c0-0.5-0.4-0.7-1.1-0.7h-0.7v1.5H111.1z"/>
		<path class="st8" d="M113.4,138.7v-1.8h0.5v1.8c0,0.5,0.2,0.8,0.6,0.8c0.3,0,0.5-0.1,0.8-0.5v-2.1h0.5v2.9h-0.4l0-0.5h0
			c-0.3,0.3-0.6,0.5-1,0.5C113.7,139.8,113.4,139.4,113.4,138.7z"/>
		<path class="st8" d="M116.4,139.4l0.2-0.3c0.3,0.2,0.5,0.3,0.9,0.3c0.4,0,0.6-0.2,0.6-0.5c0-0.3-0.3-0.4-0.7-0.6
			c-0.4-0.1-0.9-0.4-0.9-0.8c0-0.5,0.4-0.8,1-0.8c0.4,0,0.7,0.1,0.9,0.3l-0.2,0.3c-0.2-0.1-0.4-0.3-0.7-0.3c-0.4,0-0.5,0.2-0.5,0.4
			c0,0.3,0.3,0.4,0.6,0.5c0.4,0.2,0.9,0.3,0.9,0.9c0,0.5-0.4,0.9-1.1,0.9C117.1,139.8,116.7,139.6,116.4,139.4z"/>
		<path class="st8" d="M119.1,135.9c0-0.2,0.1-0.3,0.3-0.3s0.3,0.1,0.3,0.3c0,0.2-0.1,0.3-0.3,0.3S119.1,136.1,119.1,135.9z
			 M119.2,136.8h0.5v2.9h-0.5V136.8z"/>
		<path class="st8" d="M120.7,136.8h0.4l0,0.4h0c0.3-0.3,0.6-0.5,1-0.5c0.6,0,0.9,0.4,0.9,1.1v1.8h-0.5V138c0-0.5-0.2-0.8-0.6-0.8
			c-0.3,0-0.5,0.2-0.8,0.4v2.1h-0.5V136.8z"/>
		<path class="st8" d="M123.8,138.3c0-0.9,0.6-1.5,1.3-1.5c0.7,0,1.2,0.5,1.2,1.4c0,0.1,0,0.2,0,0.3h-2c0,0.6,0.4,1,1,1
			c0.3,0,0.5-0.1,0.7-0.2l0.2,0.3c-0.3,0.2-0.6,0.3-1,0.3C124.4,139.8,123.8,139.2,123.8,138.3z M125.8,138c0-0.6-0.3-0.9-0.7-0.9
			c-0.4,0-0.8,0.3-0.8,0.9H125.8z"/>
		<path class="st8" d="M126.6,139.4l0.2-0.3c0.3,0.2,0.5,0.3,0.9,0.3c0.4,0,0.6-0.2,0.6-0.5c0-0.3-0.3-0.4-0.7-0.6
			c-0.4-0.1-0.9-0.4-0.9-0.8c0-0.5,0.4-0.8,1-0.8c0.4,0,0.7,0.1,0.9,0.3l-0.2,0.3c-0.2-0.1-0.4-0.3-0.7-0.3c-0.4,0-0.5,0.2-0.5,0.4
			c0,0.3,0.3,0.4,0.6,0.5c0.4,0.2,0.9,0.3,0.9,0.9c0,0.5-0.4,0.9-1.1,0.9C127.3,139.8,126.9,139.6,126.6,139.4z"/>
		<path class="st8" d="M129.1,139.4l0.2-0.3c0.3,0.2,0.5,0.3,0.9,0.3c0.4,0,0.6-0.2,0.6-0.5c0-0.3-0.3-0.4-0.7-0.6
			c-0.4-0.1-0.9-0.4-0.9-0.8c0-0.5,0.4-0.8,1-0.8c0.4,0,0.7,0.1,0.9,0.3l-0.2,0.3c-0.2-0.1-0.4-0.3-0.7-0.3c-0.4,0-0.5,0.2-0.5,0.4
			c0,0.3,0.3,0.4,0.6,0.5c0.4,0.2,0.9,0.3,0.9,0.9c0,0.5-0.4,0.9-1.1,0.9C129.8,139.8,129.4,139.6,129.1,139.4z"/>
		<path class="st8" d="M132.9,139.2l0.3-0.3c0.3,0.3,0.7,0.5,1.1,0.5c0.5,0,0.8-0.3,0.8-0.6c0-0.4-0.3-0.5-0.7-0.7l-0.6-0.2
			c-0.4-0.2-0.8-0.4-0.8-1c0-0.6,0.5-1,1.2-1c0.5,0,0.9,0.2,1.2,0.5l-0.3,0.3c-0.2-0.2-0.5-0.4-0.9-0.4c-0.4,0-0.7,0.2-0.7,0.6
			c0,0.4,0.3,0.5,0.7,0.7l0.6,0.2c0.5,0.2,0.8,0.5,0.8,1.1c0,0.6-0.5,1.1-1.3,1.1C133.8,139.8,133.3,139.6,132.9,139.2z"/>
		<path class="st8" d="M136.2,138.3c0-1,0.6-1.5,1.4-1.5s1.4,0.6,1.4,1.5c0,1-0.6,1.5-1.4,1.5S136.2,139.3,136.2,138.3z
			 M138.4,138.3c0-0.7-0.3-1.1-0.8-1.1s-0.8,0.5-0.8,1.1s0.3,1.1,0.8,1.1S138.4,139,138.4,138.3z"/>
		<path class="st8" d="M139.6,139.2v-3.7h0.5v3.7c0,0.2,0.1,0.2,0.1,0.2c0,0,0.1,0,0.1,0l0.1,0.4c-0.1,0-0.2,0-0.3,0
			C139.8,139.8,139.6,139.6,139.6,139.2z"/>
		<path class="st8" d="M141.1,138.7v-1.8h0.5v1.8c0,0.5,0.2,0.8,0.5,0.8c0.3,0,0.5-0.1,0.8-0.5v-2.1h0.5v2.9H143l0-0.5h0
			c-0.3,0.3-0.6,0.5-1,0.5C141.4,139.8,141.1,139.4,141.1,138.7z"/>
		<path class="st8" d="M144.5,138.8v-1.6h-0.4v-0.4l0.5,0l0.1-0.8h0.4v0.8h0.8v0.4H145v1.6c0,0.4,0.1,0.6,0.5,0.6
			c0.1,0,0.2,0,0.3-0.1l0.1,0.4c-0.2,0.1-0.4,0.1-0.5,0.1C144.7,139.8,144.5,139.4,144.5,138.8z"/>
		<path class="st8" d="M146.4,135.9c0-0.2,0.1-0.3,0.3-0.3s0.3,0.1,0.3,0.3c0,0.2-0.1,0.3-0.3,0.3S146.4,136.1,146.4,135.9z
			 M146.5,136.8h0.5v2.9h-0.5V136.8z"/>
		<path class="st8" d="M147.7,138.3c0-1,0.6-1.5,1.4-1.5s1.4,0.6,1.4,1.5c0,1-0.6,1.5-1.4,1.5S147.7,139.3,147.7,138.3z
			 M149.9,138.3c0-0.7-0.3-1.1-0.8-1.1s-0.8,0.5-0.8,1.1s0.3,1.1,0.8,1.1S149.9,139,149.9,138.3z"/>
		<path class="st8" d="M151.2,136.8h0.4l0,0.4h0c0.3-0.3,0.6-0.5,1-0.5c0.6,0,0.9,0.4,0.9,1.1v1.8H153V138c0-0.5-0.2-0.8-0.5-0.8
			c-0.3,0-0.5,0.2-0.8,0.4v2.1h-0.5V136.8z"/>
		<path class="st8" d="M154.1,139.4l0.2-0.3c0.3,0.2,0.5,0.3,0.9,0.3c0.4,0,0.6-0.2,0.6-0.5c0-0.3-0.3-0.4-0.7-0.6
			c-0.4-0.1-0.9-0.4-0.9-0.8c0-0.5,0.4-0.8,1-0.8c0.4,0,0.7,0.1,0.9,0.3l-0.2,0.3c-0.2-0.1-0.4-0.3-0.7-0.3c-0.4,0-0.5,0.2-0.5,0.4
			c0,0.3,0.3,0.4,0.6,0.5c0.4,0.2,0.9,0.3,0.9,0.9c0,0.5-0.4,0.9-1.1,0.9C154.8,139.8,154.4,139.6,154.1,139.4z"/>
	</g>
</g>
</svg>
